<svg width="341" height="96" viewBox="0 0 341 96" fill="none" xmlns="http://www.w3.org/2000/svg">
<path d="M24.541 34.1V54.4C24.541 59.6 26.241 61.2 29.141 61.2C30.441 61.2 31.841 61 33.141 60.6C36.241 59.7 38.041 60.5 38.441 63.7L38.841 67C39.141 69.6 38.241 71.6 35.641 72.6C32.341 73.8 28.941 74.2 25.241 74.2C13.941 74.2 8.24102 68.6 8.24102 54.4V34.1H4.64102C1.64102 34.1 0.0410156 32.4 0.0410156 29.5V27.6C0.0410156 24.9 1.44102 23.2 4.14102 22.6L8.24102 21.7V12.3C8.24102 9.49999 9.74102 7.9 12.441 7.4L19.541 6.1C22.641 5.5 24.541 7.1 24.541 10.3V21.2H31.641C34.641 21.2 36.241 22.9 36.241 25.8V29.5C36.241 32.4 34.541 34.1 31.641 34.1H24.541ZM84.3035 40.7L77.0035 41.6C74.0035 42 72.6035 40.4 72.0035 37.3C71.4035 34.2 70.0035 32.9 67.6035 32.9C64.9035 32.9 62.3035 34.7 60.4035 37.3V68.4C60.4035 71.4 58.7035 73 55.8035 73H48.8035C45.8035 73 44.2035 71.3 44.2035 68.4V25.8C44.2035 22.9 45.9035 21.2 48.8035 21.2H53.3035C56.0035 21.2 57.7035 22.4 58.5035 25L59.0035 26.7C62.3035 22.7 67.0035 20 73.3035 20C82.0035 20 87.2035 24.9 88.4035 35.6C88.8035 38.6 87.2035 40.3 84.3035 40.7ZM138.441 41.5V60C138.441 61.6 139.241 62.6 141.341 62.6C143.141 62.6 143.941 64.2 143.941 66.1V68.7C143.941 71.4 142.741 73.3 140.041 73.8C138.341 74.1 136.641 74.2 135.041 74.2C130.141 74.2 126.341 72.3 124.041 67.4C120.541 71.6 114.941 74.2 108.941 74.2C96.741 74.2 91.241 67 91.241 58.2C91.241 48.7 97.441 43 108.941 43C113.941 43 119.041 43.9 122.241 45.5C122.241 35.9 120.441 33 114.841 33C112.441 33 110.641 34 109.641 35.7C108.141 38.2 107.241 39.6 104.541 39.3L97.741 38.6C94.741 38.3 92.941 36.4 93.841 33.4C96.041 26.3 102.241 20 114.941 20C130.341 20 138.441 27.2 138.441 41.5ZM113.141 53.1C109.541 53.1 107.641 55 107.641 57.7C107.641 60.1 109.441 62.1 112.841 62.1C116.641 62.1 119.741 60.8 122.241 58.6V54.3C118.941 53.4 116.241 53.1 113.141 53.1ZM181.689 67.7C178.489 71.8 173.589 74.2 168.189 74.2C154.289 74.2 147.289 63.5 147.289 47.1C147.289 31.1 154.889 20 168.189 20C172.589 20 176.689 21.1 180.089 23.1V4.6C180.089 1.6 181.789 -1.90735e-06 184.689 -1.90735e-06H191.689C194.689 -1.90735e-06 196.289 1.69999 196.289 4.6V68.4C196.289 71.3 194.589 73 191.689 73H187.289C184.589 73 182.889 71.8 182.089 69.2L181.689 67.7ZM163.689 47.1C163.689 57 166.089 61.3 172.089 61.3C175.089 61.3 177.889 60 180.089 57.8V35C177.589 33.6 175.289 32.9 172.789 32.9C166.089 32.9 163.689 37.3 163.689 47.1ZM220.332 50.3C220.932 58.2 225.132 62.1 232.132 62.1C237.032 62.1 241.432 61.2 245.632 59C248.832 57.3 250.932 58.1 251.332 61.6L251.632 64.7C251.932 67.2 251.132 69.1 248.932 70.4C244.332 72.8 238.832 74.2 232.032 74.2C212.232 74.2 203.732 63.1 203.732 47.6C203.732 32 212.132 20 229.732 20C245.832 20 252.732 30 252.732 41.1C252.732 42.7 252.732 44.5 252.532 46.1C252.232 48.9 250.432 50.3 247.632 50.3H220.332ZM229.032 32.2C224.832 32.2 221.932 34.9 220.732 40.4H236.132C235.632 35 233.332 32.2 229.032 32.2ZM265.507 -1.90735e-06H272.607C275.607 -1.90735e-06 277.207 1.69999 277.207 4.6V57.5C277.207 60 278.407 61.2 280.707 61.2C283.607 61.2 285.107 62.7 285.107 65.7V68.7C285.107 71.4 283.907 73.2 281.207 73.7C279.607 74 277.907 74.2 275.907 74.2C265.207 74.2 260.907 69.4 260.907 59.7V4.6C260.907 1.69999 262.607 -1.90735e-06 265.507 -1.90735e-06ZM306.628 71L288.928 26.5C287.628 23.3 289.128 21.2 292.528 21.2H300.028C302.628 21.2 304.528 22.5 305.328 25L314.528 52.4L322.728 25.2C323.528 22.6 325.228 21.2 327.928 21.2H335.528C338.928 21.2 340.328 23.3 339.228 26.5L321.128 77.7C316.328 91.3 309.828 95.5 298.928 95.5C294.728 95.5 290.928 94.9 287.328 93.3C284.928 92.3 284.028 90.5 284.228 87.8L284.528 84.2C284.828 80.7 286.828 79.9 290.028 81.3C292.328 82.2 294.728 82.7 297.128 82.7C300.528 82.7 303.528 81.2 305.928 73.3L306.628 71Z" fill="#294922"/>
</svg>
